<!DOCTYPE svg PUBLIC "-//W3C//DTD SVG 1.1//EN" "http://www.w3.org/Graphics/SVG/1.1/DTD/svg11.dtd">
<!-- Uploaded to: SVG Repo, www.svgrepo.com, Transformed by: SVG Repo Mixer Tools -->
<svg fill="#000000" version="1.1" id="Capa_1" xmlns="http://www.w3.org/2000/svg" xmlns:xlink="http://www.w3.org/1999/xlink" width="800px" height="800px" viewBox="0 0 569.858 569.858" xml:space="preserve">
<g id="SVGRepo_bgCarrier" stroke-width="0"/>
<g id="SVGRepo_tracerCarrier" stroke-linecap="round" stroke-linejoin="round"/>
<g id="SVGRepo_iconCarrier"> <g> <path d="M155.721,569.858h258.426c21.221,0,38.422-17.203,38.422-38.441V38.441C452.569,17.212,435.368,0,414.147,0H155.721 c-21.238,0-38.432,17.212-38.432,38.441v492.976C117.29,552.655,134.483,569.858,155.721,569.858z M284.299,546.392 c-13.378,0-24.203-10.815-24.203-24.184c0-13.359,10.825-24.184,24.203-24.184c13.331,0,24.184,10.824,24.184,24.184 C308.483,535.576,297.629,546.392,284.299,546.392z M169.156,74.004c0-5.843,4.733-10.576,10.586-10.576h210.375 c5.852,0,10.586,4.733,10.586,10.576v379.517c0,5.843-4.734,10.586-10.586,10.586H179.742c-5.853,0-10.586-4.743-10.586-10.586 V74.004L169.156,74.004z"/> <path d="M284.996,236.605c-24.451,0-47.315,13.129-59.65,34.272c-2.907,4.963-1.224,11.332,3.739,14.238 c1.645,0.966,3.452,1.416,5.231,1.416c3.586,0,7.066-1.846,8.998-5.165c8.625-14.774,24.595-23.954,41.674-23.954 c17.031,0,32.97,9.142,41.607,23.849c2.916,4.963,9.303,6.617,14.248,3.71c4.963-2.917,6.617-9.294,3.709-14.248 C332.198,249.677,309.372,236.605,284.996,236.605z"/> <path d="M204.48,277.255c1.377,0.612,2.811,0.899,4.217,0.899c3.988,0,7.793-2.314,9.524-6.177 c11.714-26.345,37.906-43.375,66.736-43.375c28.792,0,54.976,17.002,66.699,43.309c2.344,5.25,8.502,7.602,13.75,5.269 c5.25-2.343,7.613-8.501,5.27-13.751c-15.07-33.804-48.711-55.654-85.708-55.654c-37.055,0-70.715,21.879-85.766,55.73 C196.859,268.764,199.23,274.922,204.48,277.255z"/> <path d="M284.958,266.086c-18.035,0-34.31,11.37-40.516,28.286c-1.979,5.393,0.794,11.369,6.187,13.358 c3.844,1.406,7.966,0.373,10.758-2.275c1.855,11.36,11.686,20.033,23.571,20.033c11.867,0,21.689-8.654,23.562-19.985 c1.922,1.826,4.494,2.878,7.172,2.878c1.195,0,2.4-0.201,3.586-0.641c5.393-1.979,8.166-7.956,6.188-13.35 C319.258,277.456,302.983,266.086,284.958,266.086z M293.661,310.398c-2.467,2.19-5.375,3.29-8.635,3.29 c-3.309,0-6.244-1.091-8.712-3.232c-2.591-2.247-3.911-5.374-3.911-9.257c0-3.433,1.225-6.397,3.634-8.797 c2.4-2.41,5.384-3.635,8.855-3.635c3.453,0,6.455,1.215,8.902,3.605c2.467,2.41,3.721,5.374,3.721,8.826 C297.514,305.024,296.213,308.113,293.661,310.398z"/> </g> </g>
</svg>